<?xml version="1.0" encoding="UTF-8"?>
<svg xmlns="http://www.w3.org/2000/svg" viewBox="0 0 32 32" role="img" aria-label="diathek">
  <title>diathek</title>
  <path d="M16 2C9.9 2 5 6.9 5 13c0 6.6 8 15.1 10.2 17.3a1.1 1.1 0 0 0 1.6 0C19 28.1 27 19.6 27 13 27 6.9 22.1 2 16 2Z"
        fill="#d9a273" stroke="#6b3f16" stroke-width="1.4" stroke-linejoin="round"/>
  <path d="M13.2 11.2c.5-2 2-3 3.8-3 2 0 3.5 1.3 3.5 3.2 0 1.8-.9 2.7-2.2 3.4-1.1.6-1.6 1.2-1.6 2.1v.9"
        fill="none" stroke="#fff" stroke-width="2" stroke-linecap="round"/>
  <circle cx="16.7" cy="21.1" r="1.4" fill="#fff"/>
</svg>
